{
	"asset":{
		"generator":"Khronos glTF Blender I/O v4.2.57",
		"version":"2.0"
	},
	"extensionsUsed":[
		"KHR_materials_specular"
	],
	"scene":0,
	"scenes":[
		{
			"name":"Scene",
			"nodes":[
				0
			]
		}
	],
	"nodes":[
		{
			"mesh":0,
			"name":"Mario",
			"rotation":[
				0.007255729753524065,
				0,
				0,
				0.9999737739562988
			],
			"translation":[
				0,
				1.3076599836349487,
				0
			]
		}
	],
	"materials":[
		{
			"doubleSided":true,
			"extensions":{
				"KHR_materials_specular":{
					"specularFactor":0
				}
			},
			"name":"mario",
			"pbrMetallicRoughness":{
				"baseColorFactor":[
					0.800000011920929,
					0.800000011920929,
					0.800000011920929,
					1
				],
				"metallicFactor":0
			}
		}
	],
	"meshes":[
		{
			"name":"Mario",
			"primitives":[
				{
					"attributes":{
						"POSITION":0,
						"NORMAL":1,
						"TEXCOORD_0":2
					},
					"indices":3,
					"material":0
				}
			]
		}
	],
	"accessors":[
		{
			"bufferView":0,
			"componentType":5126,
			"count":952,
			"max":[
				1.3128230571746826,
				1.2742949724197388,
				0.5162820219993591
			],
			"min":[
				-1.262017011642456,
				-1.2815649509429932,
				-0.6871370077133179
			],
			"type":"VEC3"
		},
		{
			"bufferView":1,
			"componentType":5126,
			"count":952,
			"type":"VEC3"
		},
		{
			"bufferView":2,
			"componentType":5126,
			"count":952,
			"type":"VEC2"
		},
		{
			"bufferView":3,
			"componentType":5123,
			"count":4059,
			"type":"SCALAR"
		}
	],
	"bufferViews":[
		{
			"buffer":0,
			"byteLength":11424,
			"byteOffset":0,
			"target":34962
		},
		{
			"buffer":0,
			"byteLength":11424,
			"byteOffset":11424,
			"target":34962
		},
		{
			"buffer":0,
			"byteLength":7616,
			"byteOffset":22848,
			"target":34962
		},
		{
			"buffer":0,
			"byteLength":8118,
			"byteOffset":30464,
			"target":34963
		}
	],
	"buffers":[
		{
			"byteLength":38584,
			"uri":"mario.bin"
		}
	]
}
