{
	"asset":{
		"generator":"Khronos glTF Blender I/O v4.2.57",
		"version":"2.0"
	},
	"scene":0,
	"scenes":[
		{
			"name":"Scene",
			"nodes":[
				0
			]
		}
	],
	"nodes":[
		{
			"mesh":0,
			"name":"PIES.001",
			"rotation":[
				0,
				0.6956950426101685,
				0,
				0.7183372974395752
			],
			"scale":[
				0.6956687569618225,
				0.6956685185432434,
				0.6956687569618225
			],
			"translation":[
				0.11785244941711426,
				0.03392273187637329,
				0.31259727478027344
			]
		}
	],
	"materials":[
		{
			"doubleSided":true,
			"name":"pies",
			"pbrMetallicRoughness":{
				"baseColorFactor":[
					0.09758735448122025,
					0.04817182198166847,
					0.03189603611826897,
					1
				],
				"metallicFactor":0,
				"roughnessFactor":0.4000000059604645
			}
		},
		{
			"doubleSided":true,
			"name":"TORSO",
			"pbrMetallicRoughness":{
				"baseColorFactor":[
					0.18782074749469757,
					0.13286831974983215,
					0.07036010175943375,
					1
				],
				"metallicFactor":0,
				"roughnessFactor":0.5
			}
		},
		{
			"doubleSided":true,
			"name":"CABEZA",
			"pbrMetallicRoughness":{
				"baseColorFactor":[
					0.15592645108699799,
					0.05126946046948433,
					0.021219007670879364,
					1
				],
				"metallicFactor":0,
				"roughnessFactor":0.5
			}
		},
		{
			"doubleSided":true,
			"name":"OJO BCO",
			"pbrMetallicRoughness":{
				"baseColorFactor":[
					0.9335121512413025,
					0.9702330231666565,
					1,
					1
				],
				"metallicFactor":0,
				"roughnessFactor":0.5
			}
		},
		{
			"doubleSided":true,
			"name":"CEJAS",
			"pbrMetallicRoughness":{
				"baseColorFactor":[
					0,
					0,
					0,
					1
				],
				"metallicFactor":0,
				"roughnessFactor":0.5
			}
		}
	],
	"meshes":[
		{
			"name":"Cube.005",
			"primitives":[
				{
					"attributes":{
						"POSITION":0,
						"NORMAL":1,
						"TEXCOORD_0":2
					},
					"indices":3,
					"material":0
				},
				{
					"attributes":{
						"POSITION":4,
						"NORMAL":5,
						"TEXCOORD_0":6
					},
					"indices":7,
					"material":1
				},
				{
					"attributes":{
						"POSITION":8,
						"NORMAL":9,
						"TEXCOORD_0":10
					},
					"indices":11,
					"material":2
				},
				{
					"attributes":{
						"POSITION":12,
						"NORMAL":13,
						"TEXCOORD_0":14
					},
					"indices":15,
					"material":3
				},
				{
					"attributes":{
						"POSITION":16,
						"NORMAL":17,
						"TEXCOORD_0":18
					},
					"indices":19,
					"material":4
				}
			]
		}
	],
	"accessors":[
		{
			"bufferView":0,
			"componentType":5126,
			"count":1510,
			"max":[
				2.5270884037017822,
				0.9230260848999023,
				-0.2751099467277527
			],
			"min":[
				-2.5270884037017822,
				-0.29642024636268616,
				-2.4413437843322754
			],
			"type":"VEC3"
		},
		{
			"bufferView":1,
			"componentType":5126,
			"count":1510,
			"type":"VEC3"
		},
		{
			"bufferView":2,
			"componentType":5126,
			"count":1510,
			"type":"VEC2"
		},
		{
			"bufferView":3,
			"componentType":5123,
			"count":7680,
			"type":"SCALAR"
		},
		{
			"bufferView":4,
			"componentType":5126,
			"count":452,
			"max":[
				1.4598172903060913,
				2.760185718536377,
				-0.3749912977218628
			],
			"min":[
				-1.3429385423660278,
				0.3466620445251465,
				-2.4154062271118164
			],
			"type":"VEC3"
		},
		{
			"bufferView":5,
			"componentType":5126,
			"count":452,
			"type":"VEC3"
		},
		{
			"bufferView":6,
			"componentType":5126,
			"count":452,
			"type":"VEC2"
		},
		{
			"bufferView":7,
			"componentType":5123,
			"count":2304,
			"type":"SCALAR"
		},
		{
			"bufferView":8,
			"componentType":5126,
			"count":72372,
			"max":[
				3.9636077880859375,
				6.8289794921875,
				1.4464868307113647
			],
			"min":[
				-3.171863555908203,
				1.6626653671264648,
				-5.191833972930908
			],
			"type":"VEC3"
		},
		{
			"bufferView":9,
			"componentType":5126,
			"count":72372,
			"type":"VEC3"
		},
		{
			"bufferView":10,
			"componentType":5126,
			"count":72372,
			"type":"VEC2"
		},
		{
			"bufferView":11,
			"componentType":5125,
			"count":415296,
			"type":"SCALAR"
		},
		{
			"bufferView":12,
			"componentType":5126,
			"count":9978,
			"max":[
				2.8212294578552246,
				5.604178428649902,
				0.8051741123199463
			],
			"min":[
				-1.9035152196884155,
				2.87884259223938,
				-0.5307592153549194
			],
			"type":"VEC3"
		},
		{
			"bufferView":13,
			"componentType":5126,
			"count":9978,
			"type":"VEC3"
		},
		{
			"bufferView":14,
			"componentType":5126,
			"count":9978,
			"type":"VEC2"
		},
		{
			"bufferView":15,
			"componentType":5123,
			"count":45120,
			"type":"SCALAR"
		},
		{
			"bufferView":16,
			"componentType":5126,
			"count":3384,
			"max":[
				3.0026509761810303,
				6.670675277709961,
				0.40121161937713623
			],
			"min":[
				-2.1567556858062744,
				4.372119903564453,
				-0.9440858960151672
			],
			"type":"VEC3"
		},
		{
			"bufferView":17,
			"componentType":5126,
			"count":3384,
			"type":"VEC3"
		},
		{
			"bufferView":18,
			"componentType":5126,
			"count":3384,
			"type":"VEC2"
		},
		{
			"bufferView":19,
			"componentType":5123,
			"count":18432,
			"type":"SCALAR"
		}
	],
	"bufferViews":[
		{
			"buffer":0,
			"byteLength":18120,
			"byteOffset":0,
			"target":34962
		},
		{
			"buffer":0,
			"byteLength":18120,
			"byteOffset":18120,
			"target":34962
		},
		{
			"buffer":0,
			"byteLength":12080,
			"byteOffset":36240,
			"target":34962
		},
		{
			"buffer":0,
			"byteLength":15360,
			"byteOffset":48320,
			"target":34963
		},
		{
			"buffer":0,
			"byteLength":5424,
			"byteOffset":63680,
			"target":34962
		},
		{
			"buffer":0,
			"byteLength":5424,
			"byteOffset":69104,
			"target":34962
		},
		{
			"buffer":0,
			"byteLength":3616,
			"byteOffset":74528,
			"target":34962
		},
		{
			"buffer":0,
			"byteLength":4608,
			"byteOffset":78144,
			"target":34963
		},
		{
			"buffer":0,
			"byteLength":868464,
			"byteOffset":82752,
			"target":34962
		},
		{
			"buffer":0,
			"byteLength":868464,
			"byteOffset":951216,
			"target":34962
		},
		{
			"buffer":0,
			"byteLength":578976,
			"byteOffset":1819680,
			"target":34962
		},
		{
			"buffer":0,
			"byteLength":1661184,
			"byteOffset":2398656,
			"target":34963
		},
		{
			"buffer":0,
			"byteLength":119736,
			"byteOffset":4059840,
			"target":34962
		},
		{
			"buffer":0,
			"byteLength":119736,
			"byteOffset":4179576,
			"target":34962
		},
		{
			"buffer":0,
			"byteLength":79824,
			"byteOffset":4299312,
			"target":34962
		},
		{
			"buffer":0,
			"byteLength":90240,
			"byteOffset":4379136,
			"target":34963
		},
		{
			"buffer":0,
			"byteLength":40608,
			"byteOffset":4469376,
			"target":34962
		},
		{
			"buffer":0,
			"byteLength":40608,
			"byteOffset":4509984,
			"target":34962
		},
		{
			"buffer":0,
			"byteLength":27072,
			"byteOffset":4550592,
			"target":34962
		},
		{
			"buffer":0,
			"byteLength":36864,
			"byteOffset":4577664,
			"target":34963
		}
	],
	"buffers":[
		{
			"byteLength":4614528,
			"uri":"untitled.bin"
		}
	]
}
